<mxfile host="Electron" modified="2024-01-12T21:34:25.648Z" agent="Mozilla/5.0 (Windows NT 10.0; Win64; x64) AppleWebKit/537.36 (KHTML, like Gecko) draw.io/22.1.18 Chrome/120.0.6099.199 Electron/28.1.2 Safari/537.36" etag="qoInplKzgjkiGjJVRXbx" version="22.1.18" type="device">
  <diagram name="Page-1" id="pkmesYbsGE19lawqfJWB">
    <mxGraphModel dx="1434" dy="844" grid="1" gridSize="10" guides="1" tooltips="1" connect="1" arrows="1" fold="1" page="1" pageScale="1" pageWidth="827" pageHeight="1169" background="#ffffff" math="0" shadow="0">
      <root>
        <mxCell id="0" />
        <mxCell id="1" parent="0" />
        <mxCell id="MiUqqFNnCgQq0DjydENk-48" value="" style="rounded=0;whiteSpace=wrap;html=1;fillColor=#d80073;fontColor=#ffffff;strokeColor=none;opacity=10;" vertex="1" parent="1">
          <mxGeometry x="350" y="120" width="100" height="640" as="geometry" />
        </mxCell>
        <mxCell id="MiUqqFNnCgQq0DjydENk-49" value="" style="rounded=0;whiteSpace=wrap;html=1;fillColor=#d80073;fontColor=#ffffff;strokeColor=none;opacity=10;fillStyle=solid;" vertex="1" parent="1">
          <mxGeometry x="550" y="120" width="100" height="640" as="geometry" />
        </mxCell>
        <mxCell id="MiUqqFNnCgQq0DjydENk-59" value="" style="rounded=0;whiteSpace=wrap;html=1;fillColor=#d80073;fontColor=#ffffff;strokeColor=none;opacity=10;" vertex="1" parent="1">
          <mxGeometry x="150" y="120" width="100" height="640" as="geometry" />
        </mxCell>
        <mxCell id="MiUqqFNnCgQq0DjydENk-2" value="" style="ellipse;whiteSpace=wrap;html=1;aspect=fixed;rotation=10;strokeColor=#18141D;" vertex="1" parent="1">
          <mxGeometry x="360" y="180" width="80" height="80" as="geometry" />
        </mxCell>
        <mxCell id="MiUqqFNnCgQq0DjydENk-3" value="" style="ellipse;whiteSpace=wrap;html=1;aspect=fixed;rotation=30;fillStyle=solid;strokeColor=none;" vertex="1" parent="1">
          <mxGeometry x="360" y="300" width="80" height="80" as="geometry" />
        </mxCell>
        <mxCell id="MiUqqFNnCgQq0DjydENk-4" value="" style="ellipse;whiteSpace=wrap;html=1;aspect=fixed;rotation=-5;fillStyle=solid;strokeColor=none;" vertex="1" parent="1">
          <mxGeometry x="360" y="420" width="80" height="80" as="geometry" />
        </mxCell>
        <mxCell id="MiUqqFNnCgQq0DjydENk-5" value="" style="ellipse;whiteSpace=wrap;html=1;aspect=fixed;rotation=20;fillStyle=solid;strokeColor=none;" vertex="1" parent="1">
          <mxGeometry x="360" y="540" width="80" height="80" as="geometry" />
        </mxCell>
        <mxCell id="MiUqqFNnCgQq0DjydENk-6" value="" style="ellipse;whiteSpace=wrap;html=1;aspect=fixed;rotation=-15;fillStyle=solid;strokeColor=none;" vertex="1" parent="1">
          <mxGeometry x="360" y="660" width="80" height="80" as="geometry" />
        </mxCell>
        <mxCell id="MiUqqFNnCgQq0DjydENk-8" value="&lt;b style=&quot;font-size: 16px;&quot;&gt;x&lt;sub&gt;1&lt;/sub&gt;&lt;/b&gt;" style="ellipse;whiteSpace=wrap;html=1;aspect=fixed;rotation=0;fillStyle=solid;strokeColor=none;" vertex="1" parent="1">
          <mxGeometry x="160" y="300" width="80" height="80" as="geometry" />
        </mxCell>
        <mxCell id="MiUqqFNnCgQq0DjydENk-9" value="&lt;b style=&quot;font-size: 16px;&quot;&gt;x&lt;sub&gt;2&lt;/sub&gt;&lt;/b&gt;" style="ellipse;whiteSpace=wrap;html=1;aspect=fixed;fillStyle=solid;strokeColor=none;" vertex="1" parent="1">
          <mxGeometry x="160" y="420" width="80" height="80" as="geometry" />
        </mxCell>
        <mxCell id="MiUqqFNnCgQq0DjydENk-10" value="&lt;b style=&quot;font-size: 16px;&quot;&gt;x&lt;sub&gt;3&lt;/sub&gt;&lt;/b&gt;" style="ellipse;whiteSpace=wrap;html=1;aspect=fixed;fillStyle=solid;strokeColor=none;" vertex="1" parent="1">
          <mxGeometry x="160" y="540" width="80" height="80" as="geometry" />
        </mxCell>
        <mxCell id="MiUqqFNnCgQq0DjydENk-12" value="&lt;font style=&quot;font-size: 16px;&quot;&gt;&lt;b&gt;ŷ&lt;sub&gt;1&lt;/sub&gt;&lt;/b&gt;&lt;/font&gt;" style="ellipse;whiteSpace=wrap;html=1;aspect=fixed;fillStyle=solid;strokeColor=none;" vertex="1" parent="1">
          <mxGeometry x="560" y="360" width="80" height="80" as="geometry" />
        </mxCell>
        <mxCell id="MiUqqFNnCgQq0DjydENk-13" value="&lt;b style=&quot;font-size: 16px;&quot;&gt;ŷ&lt;/b&gt;&lt;b style=&quot;font-size: 13.3333px;&quot;&gt;2&lt;/b&gt;" style="ellipse;whiteSpace=wrap;html=1;aspect=fixed;fillStyle=solid;strokeColor=none;" vertex="1" parent="1">
          <mxGeometry x="560" y="480" width="80" height="80" as="geometry" />
        </mxCell>
        <mxCell id="MiUqqFNnCgQq0DjydENk-15" value="" style="endArrow=none;html=1;rounded=0;exitX=1;exitY=0;exitDx=0;exitDy=0;entryX=0;entryY=0.5;entryDx=0;entryDy=0;strokeWidth=2;strokeColor=#18141D;" edge="1" parent="1" source="MiUqqFNnCgQq0DjydENk-8" target="MiUqqFNnCgQq0DjydENk-2">
          <mxGeometry width="50" height="50" relative="1" as="geometry">
            <mxPoint x="390" y="460" as="sourcePoint" />
            <mxPoint x="440" y="410" as="targetPoint" />
          </mxGeometry>
        </mxCell>
        <mxCell id="MiUqqFNnCgQq0DjydENk-16" value="" style="endArrow=none;html=1;rounded=0;exitX=1;exitY=0.5;exitDx=0;exitDy=0;strokeWidth=2;entryX=0;entryY=0.5;entryDx=0;entryDy=0;strokeColor=#18141D;" edge="1" parent="1" source="MiUqqFNnCgQq0DjydENk-8" target="MiUqqFNnCgQq0DjydENk-3">
          <mxGeometry width="50" height="50" relative="1" as="geometry">
            <mxPoint x="245" y="330" as="sourcePoint" />
            <mxPoint x="374" y="247" as="targetPoint" />
          </mxGeometry>
        </mxCell>
        <mxCell id="MiUqqFNnCgQq0DjydENk-17" value="" style="endArrow=none;html=1;rounded=0;strokeWidth=2;entryX=0;entryY=0;entryDx=0;entryDy=0;strokeColor=#18141D;" edge="1" parent="1" target="MiUqqFNnCgQq0DjydENk-4">
          <mxGeometry width="50" height="50" relative="1" as="geometry">
            <mxPoint x="240" y="350" as="sourcePoint" />
            <mxPoint x="370" y="352" as="targetPoint" />
          </mxGeometry>
        </mxCell>
        <mxCell id="MiUqqFNnCgQq0DjydENk-18" value="" style="endArrow=none;html=1;rounded=0;strokeWidth=2;exitX=1;exitY=1;exitDx=0;exitDy=0;entryX=0;entryY=0;entryDx=0;entryDy=0;strokeColor=#18141D;" edge="1" parent="1" source="MiUqqFNnCgQq0DjydENk-8" target="MiUqqFNnCgQq0DjydENk-5">
          <mxGeometry width="50" height="50" relative="1" as="geometry">
            <mxPoint x="233" y="361" as="sourcePoint" />
            <mxPoint x="380" y="362" as="targetPoint" />
          </mxGeometry>
        </mxCell>
        <mxCell id="MiUqqFNnCgQq0DjydENk-19" value="" style="endArrow=none;html=1;rounded=0;exitX=1;exitY=1;exitDx=0;exitDy=0;strokeWidth=2;entryX=0.5;entryY=0;entryDx=0;entryDy=0;strokeColor=#18141D;" edge="1" parent="1" source="MiUqqFNnCgQq0DjydENk-8" target="MiUqqFNnCgQq0DjydENk-6">
          <mxGeometry width="50" height="50" relative="1" as="geometry">
            <mxPoint x="269" y="380" as="sourcePoint" />
            <mxPoint x="390" y="372" as="targetPoint" />
          </mxGeometry>
        </mxCell>
        <mxCell id="MiUqqFNnCgQq0DjydENk-20" value="" style="endArrow=none;html=1;rounded=0;exitX=1;exitY=0;exitDx=0;exitDy=0;strokeWidth=2;entryX=0;entryY=1;entryDx=0;entryDy=0;strokeColor=#18141D;" edge="1" parent="1" source="MiUqqFNnCgQq0DjydENk-9" target="MiUqqFNnCgQq0DjydENk-2">
          <mxGeometry width="50" height="50" relative="1" as="geometry">
            <mxPoint x="279" y="390" as="sourcePoint" />
            <mxPoint x="400" y="382" as="targetPoint" />
          </mxGeometry>
        </mxCell>
        <mxCell id="MiUqqFNnCgQq0DjydENk-21" value="" style="endArrow=none;html=1;rounded=0;exitX=1;exitY=0;exitDx=0;exitDy=0;strokeWidth=2;entryX=0;entryY=1;entryDx=0;entryDy=0;strokeColor=#18141D;" edge="1" parent="1" source="MiUqqFNnCgQq0DjydENk-9" target="MiUqqFNnCgQq0DjydENk-3">
          <mxGeometry width="50" height="50" relative="1" as="geometry">
            <mxPoint x="289" y="400" as="sourcePoint" />
            <mxPoint x="410" y="392" as="targetPoint" />
          </mxGeometry>
        </mxCell>
        <mxCell id="MiUqqFNnCgQq0DjydENk-22" value="" style="endArrow=none;html=1;rounded=0;exitX=1;exitY=0.5;exitDx=0;exitDy=0;strokeWidth=2;entryX=0;entryY=0.5;entryDx=0;entryDy=0;strokeColor=#18141D;" edge="1" parent="1" source="MiUqqFNnCgQq0DjydENk-9" target="MiUqqFNnCgQq0DjydENk-4">
          <mxGeometry width="50" height="50" relative="1" as="geometry">
            <mxPoint x="299" y="410" as="sourcePoint" />
            <mxPoint x="420" y="402" as="targetPoint" />
          </mxGeometry>
        </mxCell>
        <mxCell id="MiUqqFNnCgQq0DjydENk-23" value="" style="endArrow=none;html=1;rounded=0;exitX=1;exitY=1;exitDx=0;exitDy=0;strokeWidth=2;entryX=0;entryY=0.5;entryDx=0;entryDy=0;strokeColor=#18141D;" edge="1" parent="1" source="MiUqqFNnCgQq0DjydENk-9" target="MiUqqFNnCgQq0DjydENk-5">
          <mxGeometry width="50" height="50" relative="1" as="geometry">
            <mxPoint x="309" y="420" as="sourcePoint" />
            <mxPoint x="430" y="412" as="targetPoint" />
          </mxGeometry>
        </mxCell>
        <mxCell id="MiUqqFNnCgQq0DjydENk-24" value="" style="endArrow=none;html=1;rounded=0;exitX=1;exitY=1;exitDx=0;exitDy=0;strokeWidth=2;entryX=0;entryY=0;entryDx=0;entryDy=0;strokeColor=#18141D;" edge="1" parent="1" source="MiUqqFNnCgQq0DjydENk-9" target="MiUqqFNnCgQq0DjydENk-6">
          <mxGeometry width="50" height="50" relative="1" as="geometry">
            <mxPoint x="319" y="430" as="sourcePoint" />
            <mxPoint x="440" y="422" as="targetPoint" />
          </mxGeometry>
        </mxCell>
        <mxCell id="MiUqqFNnCgQq0DjydENk-25" value="" style="endArrow=none;html=1;rounded=0;exitX=1;exitY=0;exitDx=0;exitDy=0;strokeWidth=2;entryX=0.5;entryY=1;entryDx=0;entryDy=0;strokeColor=#18141D;" edge="1" parent="1" source="MiUqqFNnCgQq0DjydENk-10" target="MiUqqFNnCgQq0DjydENk-2">
          <mxGeometry width="50" height="50" relative="1" as="geometry">
            <mxPoint x="329" y="440" as="sourcePoint" />
            <mxPoint x="450" y="432" as="targetPoint" />
          </mxGeometry>
        </mxCell>
        <mxCell id="MiUqqFNnCgQq0DjydENk-26" value="" style="endArrow=none;html=1;rounded=0;exitX=1;exitY=0;exitDx=0;exitDy=0;strokeWidth=2;entryX=0.5;entryY=1;entryDx=0;entryDy=0;strokeColor=#18141D;" edge="1" parent="1" source="MiUqqFNnCgQq0DjydENk-10" target="MiUqqFNnCgQq0DjydENk-3">
          <mxGeometry width="50" height="50" relative="1" as="geometry">
            <mxPoint x="339" y="450" as="sourcePoint" />
            <mxPoint x="460" y="442" as="targetPoint" />
          </mxGeometry>
        </mxCell>
        <mxCell id="MiUqqFNnCgQq0DjydENk-27" value="" style="endArrow=none;html=1;rounded=0;exitX=1;exitY=0.5;exitDx=0;exitDy=0;strokeWidth=2;entryX=0;entryY=1;entryDx=0;entryDy=0;strokeColor=#18141D;" edge="1" parent="1" source="MiUqqFNnCgQq0DjydENk-10" target="MiUqqFNnCgQq0DjydENk-4">
          <mxGeometry width="50" height="50" relative="1" as="geometry">
            <mxPoint x="349" y="460" as="sourcePoint" />
            <mxPoint x="470" y="452" as="targetPoint" />
          </mxGeometry>
        </mxCell>
        <mxCell id="MiUqqFNnCgQq0DjydENk-28" value="" style="endArrow=none;html=1;rounded=0;exitX=1;exitY=1;exitDx=0;exitDy=0;strokeWidth=2;entryX=0;entryY=0.5;entryDx=0;entryDy=0;strokeColor=#18141D;" edge="1" parent="1" source="MiUqqFNnCgQq0DjydENk-10" target="MiUqqFNnCgQq0DjydENk-6">
          <mxGeometry width="50" height="50" relative="1" as="geometry">
            <mxPoint x="359" y="470" as="sourcePoint" />
            <mxPoint x="480" y="462" as="targetPoint" />
          </mxGeometry>
        </mxCell>
        <mxCell id="MiUqqFNnCgQq0DjydENk-29" value="" style="endArrow=none;html=1;rounded=0;exitX=1;exitY=0.5;exitDx=0;exitDy=0;strokeWidth=2;entryX=0;entryY=1;entryDx=0;entryDy=0;strokeColor=#18141D;" edge="1" parent="1" source="MiUqqFNnCgQq0DjydENk-10" target="MiUqqFNnCgQq0DjydENk-5">
          <mxGeometry width="50" height="50" relative="1" as="geometry">
            <mxPoint x="369" y="480" as="sourcePoint" />
            <mxPoint x="490" y="472" as="targetPoint" />
          </mxGeometry>
        </mxCell>
        <mxCell id="MiUqqFNnCgQq0DjydENk-30" value="" style="endArrow=none;html=1;rounded=0;exitX=1;exitY=0.5;exitDx=0;exitDy=0;strokeWidth=2;entryX=0;entryY=0;entryDx=0;entryDy=0;strokeColor=#18141D;" edge="1" parent="1" source="MiUqqFNnCgQq0DjydENk-2" target="MiUqqFNnCgQq0DjydENk-12">
          <mxGeometry width="50" height="50" relative="1" as="geometry">
            <mxPoint x="379" y="490" as="sourcePoint" />
            <mxPoint x="500" y="482" as="targetPoint" />
          </mxGeometry>
        </mxCell>
        <mxCell id="MiUqqFNnCgQq0DjydENk-31" value="" style="endArrow=none;html=1;rounded=0;exitX=1;exitY=1;exitDx=0;exitDy=0;strokeWidth=2;entryX=0.5;entryY=0;entryDx=0;entryDy=0;strokeColor=#18141D;" edge="1" parent="1" source="MiUqqFNnCgQq0DjydENk-2" target="MiUqqFNnCgQq0DjydENk-13">
          <mxGeometry width="50" height="50" relative="1" as="geometry">
            <mxPoint x="389" y="500" as="sourcePoint" />
            <mxPoint x="510" y="492" as="targetPoint" />
          </mxGeometry>
        </mxCell>
        <mxCell id="MiUqqFNnCgQq0DjydENk-32" value="" style="endArrow=none;html=1;rounded=0;exitX=1;exitY=0;exitDx=0;exitDy=0;strokeWidth=2;entryX=0;entryY=0.5;entryDx=0;entryDy=0;strokeColor=#18141D;" edge="1" parent="1" source="MiUqqFNnCgQq0DjydENk-3" target="MiUqqFNnCgQq0DjydENk-12">
          <mxGeometry width="50" height="50" relative="1" as="geometry">
            <mxPoint x="399" y="510" as="sourcePoint" />
            <mxPoint x="520" y="502" as="targetPoint" />
          </mxGeometry>
        </mxCell>
        <mxCell id="MiUqqFNnCgQq0DjydENk-33" value="" style="endArrow=none;html=1;rounded=0;exitX=1;exitY=0.5;exitDx=0;exitDy=0;strokeWidth=2;entryX=0;entryY=0;entryDx=0;entryDy=0;strokeColor=#18141D;" edge="1" parent="1" source="MiUqqFNnCgQq0DjydENk-3" target="MiUqqFNnCgQq0DjydENk-13">
          <mxGeometry width="50" height="50" relative="1" as="geometry">
            <mxPoint x="409" y="520" as="sourcePoint" />
            <mxPoint x="530" y="512" as="targetPoint" />
          </mxGeometry>
        </mxCell>
        <mxCell id="MiUqqFNnCgQq0DjydENk-34" value="" style="endArrow=none;html=1;rounded=0;exitX=1;exitY=0;exitDx=0;exitDy=0;strokeWidth=2;entryX=0;entryY=0.5;entryDx=0;entryDy=0;strokeColor=#18141D;" edge="1" parent="1" source="MiUqqFNnCgQq0DjydENk-4" target="MiUqqFNnCgQq0DjydENk-12">
          <mxGeometry width="50" height="50" relative="1" as="geometry">
            <mxPoint x="419" y="530" as="sourcePoint" />
            <mxPoint x="540" y="522" as="targetPoint" />
          </mxGeometry>
        </mxCell>
        <mxCell id="MiUqqFNnCgQq0DjydENk-35" value="" style="endArrow=none;html=1;rounded=0;exitX=1;exitY=1;exitDx=0;exitDy=0;strokeWidth=2;entryX=0;entryY=0.5;entryDx=0;entryDy=0;strokeColor=#18141D;" edge="1" parent="1" source="MiUqqFNnCgQq0DjydENk-4" target="MiUqqFNnCgQq0DjydENk-13">
          <mxGeometry width="50" height="50" relative="1" as="geometry">
            <mxPoint x="429" y="540" as="sourcePoint" />
            <mxPoint x="550" y="532" as="targetPoint" />
          </mxGeometry>
        </mxCell>
        <mxCell id="MiUqqFNnCgQq0DjydENk-36" value="" style="endArrow=none;html=1;rounded=0;exitX=0.5;exitY=0;exitDx=0;exitDy=0;strokeWidth=2;entryX=0;entryY=0.5;entryDx=0;entryDy=0;strokeColor=#18141D;" edge="1" parent="1" source="MiUqqFNnCgQq0DjydENk-5" target="MiUqqFNnCgQq0DjydENk-12">
          <mxGeometry width="50" height="50" relative="1" as="geometry">
            <mxPoint x="439" y="550" as="sourcePoint" />
            <mxPoint x="560" y="542" as="targetPoint" />
          </mxGeometry>
        </mxCell>
        <mxCell id="MiUqqFNnCgQq0DjydENk-37" value="" style="endArrow=none;html=1;rounded=0;exitX=1;exitY=0;exitDx=0;exitDy=0;strokeWidth=2;entryX=0;entryY=1;entryDx=0;entryDy=0;strokeColor=#18141D;" edge="1" parent="1" source="MiUqqFNnCgQq0DjydENk-5" target="MiUqqFNnCgQq0DjydENk-13">
          <mxGeometry width="50" height="50" relative="1" as="geometry">
            <mxPoint x="449" y="560" as="sourcePoint" />
            <mxPoint x="570" y="552" as="targetPoint" />
          </mxGeometry>
        </mxCell>
        <mxCell id="MiUqqFNnCgQq0DjydENk-38" value="" style="endArrow=none;html=1;rounded=0;exitX=1;exitY=0.5;exitDx=0;exitDy=0;strokeWidth=2;entryX=0.5;entryY=1;entryDx=0;entryDy=0;strokeColor=#18141D;" edge="1" parent="1" source="MiUqqFNnCgQq0DjydENk-6" target="MiUqqFNnCgQq0DjydENk-13">
          <mxGeometry width="50" height="50" relative="1" as="geometry">
            <mxPoint x="459" y="570" as="sourcePoint" />
            <mxPoint x="580" y="562" as="targetPoint" />
          </mxGeometry>
        </mxCell>
        <mxCell id="MiUqqFNnCgQq0DjydENk-39" value="" style="endArrow=none;html=1;rounded=0;exitX=1;exitY=0;exitDx=0;exitDy=0;strokeWidth=2;entryX=0;entryY=1;entryDx=0;entryDy=0;strokeColor=#18141D;" edge="1" parent="1" source="MiUqqFNnCgQq0DjydENk-6" target="MiUqqFNnCgQq0DjydENk-12">
          <mxGeometry width="50" height="50" relative="1" as="geometry">
            <mxPoint x="469" y="580" as="sourcePoint" />
            <mxPoint x="590" y="572" as="targetPoint" />
          </mxGeometry>
        </mxCell>
        <mxCell id="MiUqqFNnCgQq0DjydENk-43" value="" style="endArrow=none;dashed=1;html=1;rounded=0;fillColor=#d80073;strokeColor=#18141D;strokeWidth=2;fontStyle=1" edge="1" parent="1">
          <mxGeometry width="50" height="50" relative="1" as="geometry">
            <mxPoint x="250" y="760" as="sourcePoint" />
            <mxPoint x="250" y="120" as="targetPoint" />
          </mxGeometry>
        </mxCell>
        <mxCell id="MiUqqFNnCgQq0DjydENk-50" value="" style="endArrow=none;dashed=1;html=1;rounded=0;fillColor=#d80073;strokeColor=#18141D;strokeWidth=2;fontStyle=1" edge="1" parent="1">
          <mxGeometry width="50" height="50" relative="1" as="geometry">
            <mxPoint x="350" y="760" as="sourcePoint" />
            <mxPoint x="350" y="120" as="targetPoint" />
          </mxGeometry>
        </mxCell>
        <mxCell id="MiUqqFNnCgQq0DjydENk-51" value="" style="endArrow=none;dashed=1;html=1;rounded=0;fillColor=#d80073;strokeColor=#18141D;strokeWidth=2;fontStyle=1" edge="1" parent="1">
          <mxGeometry width="50" height="50" relative="1" as="geometry">
            <mxPoint x="450" y="760" as="sourcePoint" />
            <mxPoint x="450" y="120" as="targetPoint" />
          </mxGeometry>
        </mxCell>
        <mxCell id="MiUqqFNnCgQq0DjydENk-52" value="" style="endArrow=none;dashed=1;html=1;rounded=0;fillColor=#d80073;strokeColor=#18141D;strokeWidth=2;fontStyle=1" edge="1" parent="1">
          <mxGeometry width="50" height="50" relative="1" as="geometry">
            <mxPoint x="550" y="760" as="sourcePoint" />
            <mxPoint x="550" y="120" as="targetPoint" />
          </mxGeometry>
        </mxCell>
        <mxCell id="MiUqqFNnCgQq0DjydENk-53" value="" style="endArrow=none;dashed=1;html=1;rounded=0;fillColor=#d80073;strokeColor=#18141D;strokeWidth=2;fontStyle=1" edge="1" parent="1">
          <mxGeometry width="50" height="50" relative="1" as="geometry">
            <mxPoint x="650" y="760" as="sourcePoint" />
            <mxPoint x="650" y="120" as="targetPoint" />
          </mxGeometry>
        </mxCell>
        <mxCell id="MiUqqFNnCgQq0DjydENk-54" value="" style="endArrow=none;dashed=1;html=1;rounded=0;fillColor=#d80073;strokeColor=#18141D;strokeWidth=2;fontStyle=1" edge="1" parent="1">
          <mxGeometry width="50" height="50" relative="1" as="geometry">
            <mxPoint x="150" y="760" as="sourcePoint" />
            <mxPoint x="150" y="120" as="targetPoint" />
          </mxGeometry>
        </mxCell>
        <mxCell id="MiUqqFNnCgQq0DjydENk-60" value="&lt;font style=&quot;font-size: 16px;&quot;&gt;&lt;b&gt;INPUT&lt;/b&gt;&lt;/font&gt;" style="rounded=0;whiteSpace=wrap;html=1;fillStyle=solid;" vertex="1" parent="1">
          <mxGeometry x="160" y="120" width="80" height="40" as="geometry" />
        </mxCell>
        <mxCell id="MiUqqFNnCgQq0DjydENk-61" value="&lt;font style=&quot;font-size: 16px;&quot;&gt;&lt;b&gt;HIDDEN LAYER&lt;/b&gt;&lt;/font&gt;" style="rounded=0;whiteSpace=wrap;html=1;fillStyle=solid;" vertex="1" parent="1">
          <mxGeometry x="360" y="120" width="80" height="40" as="geometry" />
        </mxCell>
        <mxCell id="MiUqqFNnCgQq0DjydENk-62" value="&lt;font style=&quot;font-size: 16px;&quot;&gt;&lt;b&gt;OUTPUT&lt;/b&gt;&lt;/font&gt;" style="rounded=0;whiteSpace=wrap;html=1;glass=0;shadow=0;fillStyle=solid;" vertex="1" parent="1">
          <mxGeometry x="560" y="120" width="80" height="40" as="geometry" />
        </mxCell>
        <mxCell id="MiUqqFNnCgQq0DjydENk-66" value="&lt;font style=&quot;font-size: 16px;&quot;&gt;&lt;b&gt;LAYER FUNC 1&lt;/b&gt;&lt;/font&gt;" style="rounded=0;whiteSpace=wrap;html=1;fillStyle=solid;" vertex="1" parent="1">
          <mxGeometry x="260" y="120" width="80" height="40" as="geometry" />
        </mxCell>
        <mxCell id="MiUqqFNnCgQq0DjydENk-67" value="&lt;font style=&quot;font-size: 16px;&quot;&gt;&lt;b&gt;LAYER FUNC 2&lt;/b&gt;&lt;/font&gt;" style="rounded=0;whiteSpace=wrap;html=1;fillStyle=solid;" vertex="1" parent="1">
          <mxGeometry x="460" y="120" width="80" height="40" as="geometry" />
        </mxCell>
      </root>
    </mxGraphModel>
  </diagram>
</mxfile>
